<?xml version="1.0" encoding="UTF-8"?>
<svg width="1024px" height="1024px" viewBox="0 0 1024 1024" version="1.1" xmlns="http://www.w3.org/2000/svg" xmlns:xlink="http://www.w3.org/1999/xlink">
    <title>Apple Health</title>
    <defs>
        <linearGradient x1="50.0063602%" y1="-0.00727877717%" x2="50.0063602%" y2="99.9948009%" id="linearGradient-1">
            <stop stop-color="#FF61AD" offset="0%"></stop>
            <stop stop-color="#FF2616" offset="100%"></stop>
        </linearGradient>
    </defs>
    <g id="Apple-Health" stroke="none" stroke-width="1" fill="none" fill-rule="evenodd">
        <g id="Group">
            <path d="M1023.91306,283.647478 C1023.86959,273.34488 1023.73917,263.042282 1023.43488,252.739684 C1022.82629,230.308711 1021.52216,207.660384 1017.52284,185.490236 C1013.48005,162.972321 1006.87247,142.019358 996.439463,121.544575 C986.223807,101.461029 972.834777,83.0293768 956.880965,67.1190355 C940.927152,51.1652233 922.538971,37.8196638 902.411954,27.5605366 C881.937171,17.1275259 860.984208,10.5634233 838.509764,6.47716081 C816.339616,2.47784004 793.691289,1.1737137 771.260316,0.565121413 C760.957718,0.304296145 750.65512,0.173883512 740.352522,0.0869417558 C728.137205,0 715.878417,0 703.663101,0 L320.336899,0 C308.121583,0 295.862795,0 283.647478,0.0869417558 C273.34488,0.130412634 263.042282,0.260825267 252.739684,0.565121413 C230.308711,1.1737137 207.660384,2.47784004 185.490236,6.47716081 C162.972321,10.5199525 142.019358,17.1275259 121.588046,27.5605366 C101.5045,37.7761929 83.0728477,51.1652233 67.1190355,67.1190355 C51.1652233,83.0728477 37.8196638,101.461029 27.5605366,121.544575 C17.1275259,142.019358 10.5199525,162.972321 6.47716081,185.490236 C2.47784004,207.660384 1.1737137,230.308711 0.565121413,252.739684 C0.304296145,263.042282 0.173883512,273.34488 0.0869417558,283.647478 C0,295.862795 0,308.121583 0,320.336899 L0,703.663101 C0,715.878417 0,728.137205 0.0869417558,740.352522 C0.130412634,750.65512 0.260825267,760.957718 0.565121413,771.260316 C1.1737137,793.691289 2.47784004,816.339616 6.47716081,838.509764 C10.5199525,861.027679 17.1275259,881.980642 27.5605366,902.455425 C37.7761929,922.538971 51.1652233,940.970623 67.1190355,956.880965 C83.0728477,972.834777 101.461029,986.180336 121.588046,996.439463 C142.062829,1006.87247 163.015792,1013.43658 185.490236,1017.52284 C207.660384,1021.52216 230.308711,1022.82629 252.739684,1023.43488 C263.042282,1023.6957 273.34488,1023.82612 283.647478,1023.91306 C295.862795,1024 308.121583,1024 320.336899,1024 L703.663101,1024 C715.878417,1024 728.137205,1024 740.352522,1023.91306 C750.65512,1023.86959 760.957718,1023.73917 771.260316,1023.43488 C793.691289,1022.82629 816.339616,1021.52216 838.509764,1017.52284 C861.027679,1013.48005 881.980642,1006.87247 902.411954,996.439463 C922.4955,986.223807 940.927152,972.834777 956.880965,956.880965 C972.834777,940.927152 986.180336,922.538971 996.439463,902.455425 C1006.87247,881.980642 1013.48005,861.027679 1017.52284,838.509764 C1021.52216,816.339616 1022.82629,793.691289 1023.43488,771.260316 C1023.6957,760.957718 1023.82612,750.65512 1023.91306,740.352522 C1024,728.137205 1024,715.878417 1024,703.663101 L1024,320.336899 C1024,308.121583 1024,295.862795 1023.91306,283.647478 Z" id="Path" fill="#FFFFFF" fill-rule="nonzero"></path>
            <path d="M625.043431,588 C612.969653,588 542.394512,549.794531 476.33618,487.161901 C423.958568,437.481751 386,364.461059 386,298.698971 C386,239.152334 435.815192,170 516.249137,170 C594.641832,170 611.883882,212.291151 625,212.291151 C635.510267,212.291151 656.313647,170 733.750863,170 C818.745048,170 864,246.063221 864,298.698971 C864,364.461059 828.907868,434.78694 773.66382,487.161901 C709.386153,548.142872 637.117209,588 625.043431,588 L625.043431,588 Z" id="Path" fill="url(#linearGradient-1)"></path>
        </g>
    </g>
</svg>