<?xml version="1.0" encoding="UTF-8"?>
<!--Generator: Apple Native CoreSVG 332-->
<!DOCTYPE svg
PUBLIC "-//W3C//DTD SVG 1.1//EN"
       "http://www.w3.org/Graphics/SVG/1.1/DTD/svg11.dtd">
<svg version="1.1" xmlns="http://www.w3.org/2000/svg" xmlns:xlink="http://www.w3.org/1999/xlink" viewBox="0 0 29.7832 19.3076">
 <defs>
  <style>.hierarchical-0:secondary{-sfsymbols-motion-group:1;-sfsymbols-layer-tags:environments.fill;}.hierarchical-1:primary{-sfsymbols-motion-group:0;-sfsymbols-layer-tags:environments.fill;}.hierarchical-2:primary{opacity:0.0;-sfsymbols-motion-group:0;-sfsymbols-layer-tags:environments.fill;-sfsymbols-clear-behind:true;}.hierarchical-3:primary{-sfsymbols-motion-group:0;-sfsymbols-layer-tags:environments.fill;}.monochrome-0{-sfsymbols-motion-group:1;-sfsymbols-layer-tags:environments.fill;}.monochrome-1{-sfsymbols-motion-group:0;-sfsymbols-layer-tags:environments.fill;}.monochrome-2{opacity:0.0;-sfsymbols-motion-group:0;-sfsymbols-layer-tags:environments.fill;-sfsymbols-clear-behind:true;}.monochrome-3{-sfsymbols-motion-group:0;-sfsymbols-layer-tags:environments.fill;}.multicolor-0:tintColor{-sfsymbols-motion-group:1;-sfsymbols-layer-tags:environments.fill;}.multicolor-1:tintColor{-sfsymbols-motion-group:0;-sfsymbols-layer-tags:environments.fill;}.multicolor-2:tintColor{opacity:0.0;-sfsymbols-motion-group:0;-sfsymbols-layer-tags:environments.fill;-sfsymbols-clear-behind:true;}.multicolor-3:tintColor{-sfsymbols-motion-group:0;-sfsymbols-layer-tags:environments.fill;}</style>
 </defs>
 <g id="s" transform="matrix(0.00830078 0 0 0.00830078 -1.29492 17.0581)">
  <path class="monochrome-0 multicolor-0:tintColor hierarchical-0:secondary" d="m1612-1259c19 0 38-14 41-35 47-247 66-287 318-320 23-5 40-22 40-43 0-22-18-38-40-41-252-35-281-77-318-320-3-22-21-37-41-37-21 0-38 15-42 37-48 244-65 285-318 320-23 3-39 19-39 41s15 39 39 43c253 26 283 74 318 318 3 22 20 37 42 37Z"/>
  <path class="monochrome-1 multicolor-1:tintColor hierarchical-1:primary" d="m368-102h1441c158 0 212-158 115-273l-693-810c-46-53-91-77-143-77-51 0-96 24-141 77l-694 810c-97 115-43 273 115 273Z"/>
  <path class="monochrome-2 multicolor-2:tintColor hierarchical-2:primary" d="m1349 271h1982c278 0 413-283 224-509l-960-1150c-78-92-168-131-255-131-86 0-176 39-254 130l-961 1150c-189 226-54 510 224 510Z" opacity="0.0"/>
  <path class="monochrome-3 multicolor-3:tintColor hierarchical-3:primary" d="m1349 135h1982c165 0 233-150 120-286l-961-1150c-45-54-96-82-150-82s-104 28-149 82l-961 1150c-114 135-45 286 119 286Z"/>
 </g>
</svg>
